<?xml version="1.0" encoding="UTF-8" standalone="no"?>
<svg
   height="580"
   width="580"
   viewBox="0 0 76.02772 156.48038"
   version="1.1"
   id="svg8"
   sodipodi:docname="Tencent_QQ-Logo.wine.svg"
   inkscape:version="1.3.2 (091e20ef0f, 2023-11-25, custom)"
   xmlns:inkscape="http://www.inkscape.org/namespaces/inkscape"
   xmlns:sodipodi="http://sodipodi.sourceforge.net/DTD/sodipodi-0.dtd"
   xmlns="http://www.w3.org/2000/svg"
   xmlns:svg="http://www.w3.org/2000/svg">
  <defs
     id="defs8" />
  <sodipodi:namedview
     id="namedview8"
     pagecolor="#ffffff"
     bordercolor="#000000"
     borderopacity="0.25"
     inkscape:showpageshadow="2"
     inkscape:pageopacity="0.0"
     inkscape:pagecheckerboard="0"
     inkscape:deskcolor="#d1d1d1"
     showgrid="false"
     inkscape:lockguides="false"
     inkscape:clip-to-page="false"
     inkscape:zoom="0.8675"
     inkscape:cx="326.80115"
     inkscape:cy="386.16715"
     inkscape:window-width="1560"
     inkscape:window-height="1016"
     inkscape:window-x="0"
     inkscape:window-y="0"
     inkscape:window-maximized="1"
     inkscape:current-layer="svg8" />
  <path
     fill="#faab07"
     d="m 37.698317,148.04196 c -12.533,0 -24.038,-4.195 -31.4450001,-10.46 -3.762,1.124 -8.5740004,2.932 -11.6100004,5.175 -2.6,1.918 -2.275,3.874 -1.807,4.663 2.056,3.47 35.2730005,2.216 44.8620005,1.136 z m 0,0 c 12.534999,0 24.039,-4.195 31.447,-10.46 3.76,1.124 8.573,2.932 11.61,5.175 2.598,1.918 2.274,3.874 1.805,4.663 -2.056,3.47 -35.272,2.216 -44.862,1.136 z m 0,0"
     id="path1" />
  <path
     d="m 37.771317,72.92396 c 20.698,-0.140002 37.286,-4.147002 42.907,-5.683002 1.34,-0.367 2.056,-1.024 2.056,-1.024 0.005,-0.189 0.085,-3.37 0.085,-5.01 0,-27.634 -13.044,-55.4009996 -45.124,-55.4019996 -32.0800001,10e-4 -45.1250005,27.7689996 -45.1250005,55.4009996 0,1.642 0.08,4.822 0.086,5.01 0,0 0.583,0.615 1.65,0.913 5.19000041,1.444 22.0900005,5.65 43.3120005,5.795002 z m 56.245001,23.02 c -1.283,-4.129 -3.034,-8.944 -4.808,-13.568 0,0 -1.020001,-0.126 -1.537001,0.023 -15.913,4.623 -35.202,7.57 -49.9,7.392 h -0.153 c -14.616,0.175 -33.7740001,-2.737 -49.634,-7.315 -0.606,-0.175 -1.802,-0.1 -1.802,-0.1 -1.774,4.624 -3.525,9.44 -4.808,13.568 -6.119,19.69 -4.136,27.838 -2.627,28.02 3.239,0.392 12.6059995,-14.821 12.6059995,-14.821 0,15.459 13.9570004,39.195 45.9180005,39.413 h 0.848 c 31.96,-0.218 45.917,-23.954 45.917,-39.413 0,0 9.368001,15.213 12.607001,14.822 1.508,-0.183 3.491002,-8.332 -2.627,-28.021"
     id="path2" />
  <path
     fill="#ffffff"
     d="m 26.280317,46.628958 c -4.352,0.197 -8.07,-4.76 -8.304,-11.063 -0.236,-6.305 3.098,-11.576 7.45,-11.773 4.347,-0.195 8.064,4.76 8.3,11.065 0.238,6.306 -3.097,11.577 -7.446,11.771 m 31.133,-11.063 c -0.233,6.302 -3.951,11.26 -8.303,11.063 -4.35,-0.195 -7.684,-5.465 -7.446,-11.77 0.236,-6.305 3.952,-11.26 8.299999,-11.066 4.352001,0.197 7.686001,5.468 7.449001,11.773"
     id="path3" />
  <path
     fill="#faab07"
     d="m 65.147317,55.529958 c -1.162,-2.575 -12.875,-5.445 -27.374,-5.445 h -0.156 c -14.5,0 -26.212,2.87 -27.375,5.446 a 0.863,0.863 0 0 0 -0.085,0.367 0.88,0.88 0 0 0 0.16,0.496 c 0.98,1.427 13.985,8.487 27.3,8.487 h 0.156 c 13.313999,0 26.319,-7.058 27.299,-8.487 a 0.873,0.873 0 0 0 0.16,-0.498 0.856,0.856 0 0 0 -0.085,-0.365"
     id="path4" />
  <path
     d="m 31.629317,35.658958 c 0.199,2.49 -1.167,4.702 -3.046,4.943 -1.883,0.242 -3.568,-1.58 -3.768,-4.07 -0.197,-2.492 1.167,-4.704 3.043,-4.944 1.886,-0.244 3.574,1.58 3.771,4.07 m 11.956,0.833 c 0.385,-0.689 3.004,-4.312 8.427,-2.993 1.425,0.347 2.084,0.857 2.223,1.057 0.205,0.296 0.262,0.718 0.053,1.286 -0.412,1.126 -1.263,1.095 -1.734,0.875 -0.305,-0.142 -4.082,-2.66 -7.562,1.097 -0.24,0.257 -0.668,0.346 -1.073,0.04 -0.407,-0.308 -0.574,-0.93 -0.334,-1.362"
     id="path5" />
  <path
     fill="#ffffff"
     d="m 37.771317,88.88496 h -0.153 c -9.996,0.12 -22.116,-1.204 -33.8540001,-3.518 -1.004,5.818 -1.61,13.132 -1.09,21.853 1.316,22.043 14.4070001,35.9 34.6140001,36.1 h 0.82 c 20.208,-0.2 33.298,-14.057 34.616,-36.1 0.52,-8.723 -0.087,-16.035 -1.092,-21.854 -11.739,2.315 -23.862,3.64 -33.86,3.518"
     id="path6" />
  <path
     fill="#eb1923"
     d="m 9.2973169,87.03996 v 21.693 c 0,0 9.9370001,2.004 19.8930001,0.616 v -20.009 c -6.307,-0.357 -13.109,-1.152 -19.8930001,-2.3"
     id="path7" />
  <path
     fill="#eb1923"
     d="m 82.734317,66.216958 c 0,0 -19.33,6.102 -44.963,6.275 h -0.153 c -25.591,-0.172 -44.8960005,-6.255 -44.9620005,-6.275 L -13.817683,82.37496 c 16.1929999,4.882 36.261,8.028 51.436,7.845 h 0.153 c 15.175,0.183 35.242,-2.963 51.437001,-7.845 z m 0,0"
     id="path8" />
</svg>
